<?xml version="1.0" encoding="UTF-8" standalone="no"?>
<!-- Created with Inkscape (http://www.inkscape.org/) -->

<svg
   xmlns:dc="http://purl.org/dc/elements/1.1/"
   xmlns:cc="http://creativecommons.org/ns#"
   xmlns:rdf="http://www.w3.org/1999/02/22-rdf-syntax-ns#"
   xmlns:svg="http://www.w3.org/2000/svg"
   xmlns="http://www.w3.org/2000/svg"
   xmlns:sodipodi="http://sodipodi.sourceforge.net/DTD/sodipodi-0.dtd"
   xmlns:inkscape="http://www.inkscape.org/namespaces/inkscape"
   width="210mm"
   height="210mm"
   viewBox="0 0 210 210"
   version="1.1"
   id="svg5305"
   inkscape:version="0.92.5 (2060ec1f9f, 2020-04-08)"
   sodipodi:docname="mu_light.svg">
  <defs
     id="defs5299" />
  <sodipodi:namedview
     id="base"
     pagecolor="#ffffff"
     bordercolor="#666666"
     borderopacity="1.0"
     inkscape:pageopacity="0.0"
     inkscape:pageshadow="2"
     inkscape:zoom="0.35"
     inkscape:cx="-337.14286"
     inkscape:cy="560"
     inkscape:document-units="mm"
     inkscape:current-layer="layer1"
     showgrid="false"
     inkscape:window-width="1920"
     inkscape:window-height="1011"
     inkscape:window-x="0"
     inkscape:window-y="32"
     inkscape:window-maximized="1" />
  <metadata
     id="metadata5302">
    <rdf:RDF>
      <cc:Work
         rdf:about="">
        <dc:format>image/svg+xml</dc:format>
        <dc:type
           rdf:resource="http://purl.org/dc/dcmitype/StillImage" />
        <dc:title></dc:title>
      </cc:Work>
    </rdf:RDF>
  </metadata>
  <g
     inkscape:label="Capa 1"
     inkscape:groupmode="layer"
     id="layer1"
     transform="translate(0,-87)">
    <path
       d="m 21.169284,226.80452 c -2.93607,-0.61475 -6.08379,-3.17018 -7.4221,-6.02555 l -0.7091,-1.5129 -0.078,-18.50962 c -0.0518,-12.28352 0.0179,-19.13637 0.20699,-20.37291 1.51878,-9.92993 8.31709,-18.95849 17.5363,-23.28924 4.87236,-2.2888 7.18722,-2.78344 13.02638,-2.78344 7.25695,0 11.34236,1.22405 17.70512,5.30473 1.35022,0.86594 2.61103,1.57444 2.801802,1.57444 0.190773,0 1.429293,-0.69931 2.752262,-1.55402 4.199506,-2.71311 7.418025,-4.09073 11.498956,-4.92188 1.762067,-0.35887 3.248303,-0.4307 7.276042,-0.35168 5.018505,0.0985 5.085696,0.10756 7.882146,1.0669 5.34942,1.83514 9.090088,4.12013 12.750208,7.7885 4.36658,4.37642 7.33426,9.87469 8.52939,15.80258 0.2268,1.12493 0.49311,5.17805 0.66252,10.08314 0.31466,9.11094 0.48791,10.17528 1.98564,12.19828 4.53276,6.12251 13.49435,5.18693 16.73637,-1.74724 0.67132,-1.43585 0.68285,-1.56784 0.86644,-9.92188 0.19563,-8.9017 0.33842,-10.17577 1.5717,-14.02291 2.79204,-8.70965 9.73719,-16.06292 18.3445,-19.42247 4.23275,-1.6521 6.1867,-1.94402 12.13294,-1.81263 4.76607,0.10531 5.2521,0.16351 7.605,0.9107 5.35071,1.69917 9.26576,4.05313 13.11192,7.88363 4.80969,4.79011 8.03716,11.16521 8.8433,17.46785 0.3479,2.71995 0.55661,22.35244 0.33191,31.22084 l -0.19442,7.67291 -0.75131,1.53004 c -2.55904,5.21145 -9.12386,7.42087 -14.28485,4.80762 -2.92579,-1.48146 -5.13172,-4.35574 -5.57469,-7.2637 -0.0776,-0.50932 -0.21263,-8.60557 -0.30009,-17.99166 -0.0875,-9.3861 -0.22253,-17.30375 -0.30015,-17.5948 -0.66757,-2.50307 -2.811,-5.16411 -5.15311,-6.3975 -1.30549,-0.6875 -1.64618,-0.74625 -4.32746,-0.74625 -2.80807,0 -2.96875,0.0316 -4.56892,0.89935 -2.0393,1.10584 -3.34484,2.51378 -4.29248,4.62916 -0.72015,1.60758 -0.72443,1.6529 -0.90216,9.55129 -0.20321,9.03042 -0.35816,10.47453 -1.51078,14.07948 -1.6111,5.03891 -3.74997,8.59747 -7.49647,12.47229 -4.401,4.55173 -9.88158,7.57055 -16.15759,8.89994 -2.1647,0.45853 -8.68522,0.53251 -11.1847,0.1269 -9.01263,-1.46255 -17.6229,-7.77731 -21.989378,-16.12697 -2.844909,-5.44009 -3.401094,-8.04112 -3.595706,-16.81562 -0.256299,-11.55573 -0.42495,-12.36234 -3.155746,-15.09314 -2.217873,-2.21787 -3.886023,-2.84577 -7.166904,-2.69767 -1.671095,0.0754 -2.753468,0.27461 -3.62935,0.66784 -1.828901,0.82111 -3.702024,2.70697 -4.736886,4.7691 l -0.894181,1.7818 -0.146753,17.99167 c -0.132012,16.18465 -0.192641,18.11125 -0.603658,19.18229 -1.788612,4.66083 -7.127004,7.61253 -11.961384,6.61369 -2.28177,-0.47145 -4.01265,-1.44684 -5.72921,-3.22856 -1.66475,-1.72795 -2.44226,-3.39422 -2.69287,-5.77103 -0.0841,-0.79781 -0.22285,-8.83243 -0.30829,-17.85472 -0.0945,-9.98065 -0.26319,-16.81859 -0.43077,-17.4625 -0.62445,-2.39939 -2.83972,-4.96662 -5.20038,-6.0266 -1.896,-0.85134 -5.53157,-0.94684 -7.52007,-0.19753 -2.00671,0.75617 -4.22284,2.79416 -5.30427,4.87789 l -0.83599,1.61082 -0.072,11.37708 c -0.13191,20.84304 -0.22408,24.80209 -0.60057,25.79688 -1.06069,2.80269 -3.52162,5.31813 -6.17358,6.31036 -1.67614,0.62712 -4.6255,0.8966 -6.20151,0.56663 z"
       id="path5220"
       inkscape:connector-curvature="0"
       style="stroke-width:0.26458332;fill:#00a3ad;fill-opacity:1"
       inkscape:export-filename="/home/aperez/Irudiak/mu.png"
       inkscape:export-xdpi="511.94849"
       inkscape:export-ydpi="511.94849" />
  </g>
</svg>
